<svg width="24" height="24" viewBox="0 0 24 24" fill="none" xmlns="http://www.w3.org/2000/svg">
<g clip-path="url(#clip0_128_174)">
<path d="M0.787109 12.3L9.78111 18.86C9.92226 18.9629 10.0924 19.0183 10.2671 19.0183C10.4418 19.0183 10.6119 18.9629 10.7531 18.86L14.5001 16.134" stroke="black" stroke-linecap="round" stroke-linejoin="round"/>
<path d="M7.39898 17.1179L1.10498 23.4119" stroke="black" stroke-linecap="round" stroke-linejoin="round"/>
<path d="M13.1382 17.1211L18.8292 22.8121" stroke="black" stroke-linecap="round" stroke-linejoin="round"/>
<path d="M20.2702 0.500001H11.7882C11.3829 0.499607 10.9815 0.579079 10.6069 0.733876C10.2324 0.888673 9.89196 1.11576 9.60519 1.40216C9.31841 1.68856 9.09089 2.02867 8.9356 2.40304C8.78032 2.77741 8.70033 3.17871 8.7002 3.584V7.677C8.70046 8.49502 9.02561 9.27945 9.60413 9.85778C10.1826 10.4361 10.9672 10.761 11.7852 10.761H14.0002V13.616L17.8552 10.761H20.2702C21.0881 10.761 21.8726 10.4361 22.4509 9.85772C23.0293 9.27936 23.3542 8.49493 23.3542 7.677V3.584C23.3542 2.76607 23.0293 1.98165 22.4509 1.40328C21.8726 0.824922 21.0881 0.500001 20.2702 0.500001Z" stroke="black" stroke-linecap="round" stroke-linejoin="round"/>
<path d="M12.1729 6.02905C11.9658 6.02905 11.7979 5.86116 11.7979 5.65405C11.7979 5.44694 11.9658 5.27905 12.1729 5.27905" stroke="black"/>
<path d="M12.1729 6.02905C12.38 6.02905 12.5479 5.86116 12.5479 5.65405C12.5479 5.44694 12.38 5.27905 12.1729 5.27905" stroke="black"/>
<path d="M16.0288 6.02905C15.8217 6.02905 15.6538 5.86116 15.6538 5.65405C15.6538 5.44694 15.8217 5.27905 16.0288 5.27905" stroke="black"/>
<path d="M16.0288 6.02905C16.2359 6.02905 16.4038 5.86116 16.4038 5.65405C16.4038 5.44694 16.2359 5.27905 16.0288 5.27905" stroke="black"/>
<path d="M19.8848 6.02905C19.6777 6.02905 19.5098 5.86116 19.5098 5.65405C19.5098 5.44694 19.6777 5.27905 19.8848 5.27905" stroke="black"/>
<path d="M19.8848 6.02905C20.0919 6.02905 20.2598 5.86116 20.2598 5.65405C20.2598 5.44694 20.0919 5.27905 19.8848 5.27905" stroke="black"/>
<path d="M18.829 14.149V22.674C18.829 22.7827 18.8075 22.8904 18.7658 22.9908C18.7241 23.0912 18.663 23.1824 18.586 23.2592C18.509 23.3359 18.4176 23.3967 18.317 23.438C18.2165 23.4793 18.1087 23.5004 18 23.5H1.472C1.25293 23.5 1.04284 23.413 0.887926 23.2581C0.733021 23.1032 0.645997 22.8931 0.645997 22.674V12.756C0.645865 12.6475 0.667133 12.5399 0.708585 12.4396C0.750036 12.3393 0.810858 12.2481 0.887572 12.1713C0.964287 12.0945 1.05539 12.0336 1.15567 11.992C1.25595 11.9504 1.36344 11.929 1.472 11.929H7.46" stroke="black" stroke-linecap="round" stroke-linejoin="round"/>
</g>
<defs>
<clipPath id="clip0_128_174">
<rect width="24" height="24" fill="white"/>
</clipPath>
</defs>
</svg>
