<svg width="24" height="24" viewBox="0 0 24 24" fill="none" xmlns="http://www.w3.org/2000/svg">
<path d="M22.3059 4.49999H21.1929C21.0168 3.86165 20.6166 3.30812 20.0657 2.94081C19.5147 2.5735 18.8499 2.417 18.1929 2.49999H16.7539C16.5194 2.51036 16.2954 2.60045 16.119 2.75537C15.9426 2.91029 15.8244 3.12076 15.7839 3.35199L15.2839 5.60199C15.2376 5.8015 15.2428 6.00949 15.299 6.20644C15.3551 6.40339 15.4604 6.58286 15.6049 6.72799C15.4224 7.36612 15.0421 7.92989 14.5189 8.33817C13.9956 8.74644 13.3562 8.97817 12.6929 8.99999H7.69287C6.76462 8.99999 5.87438 9.36874 5.218 10.0251C4.56162 10.6815 4.19287 11.5717 4.19287 12.5L4.28387 13.267L5.19287 21.5H9.69287L9.38287 20.257C9.3287 20.0407 9.20383 19.8488 9.02808 19.7116C8.85234 19.5745 8.6358 19.5 8.41287 19.5H7.69287L7.92587 15.977C8.46222 15.9373 8.98211 15.774 9.44487 15.5H14.6929L16.1929 21.5H20.1929L19.8829 20.257C19.8287 20.0407 19.7038 19.8488 19.5281 19.7116C19.3524 19.5745 19.1358 19.5 18.9129 19.5H18.1929C19.2355 15.8425 19.7408 12.0529 19.6929 8.24999L22.1609 7.63299C22.3241 7.59216 22.4743 7.51082 22.5977 7.3965C22.7211 7.28219 22.8137 7.13858 22.8669 6.97899L23.2549 5.81599C23.305 5.66566 23.3186 5.50558 23.2947 5.34894C23.2707 5.19231 23.2099 5.04361 23.1172 4.91509C23.0246 4.78656 22.9027 4.68191 22.7616 4.60974C22.6205 4.53757 22.4643 4.49995 22.3059 4.49999Z" fill="white"/>
<path d="M14.6158 12.22H12.8838C12.5026 12.2183 12.1299 12.332 11.8146 12.5461C11.4992 12.7602 11.2561 13.0648 11.1172 13.4197C10.9782 13.7747 10.95 14.1634 11.0361 14.5347C11.1223 14.906 11.3188 15.2425 11.5998 15.5H14.6908L14.8128 15.988C15.2949 15.9382 15.7395 15.705 16.0545 15.3366C16.3695 14.9682 16.5308 14.4929 16.5051 14.0089C16.4794 13.5248 16.2687 13.0692 15.9165 12.7363C15.5642 12.4033 15.0975 12.2185 14.6128 12.22H14.6158Z" fill="#685C4F"/>
<path d="M10.0649 9H7.69287C6.76462 9 5.87438 9.36875 5.218 10.0251C4.56162 10.6815 4.19287 11.5717 4.19287 12.5L4.21187 12.662C4.8334 12.956 5.51889 13.089 6.20527 13.0487C6.89165 13.0085 7.55688 12.7962 8.13976 12.4315C8.72264 12.0668 9.20444 11.5614 9.54085 10.9618C9.87725 10.3621 10.0575 9.68752 10.0649 9Z" fill="#685C4F"/>
<path d="M15.5231 6.92987C16.0644 7.13897 16.6487 7.2126 17.225 7.14435C17.8012 7.0761 18.3521 6.86805 18.8296 6.5383C19.3072 6.20855 19.6969 5.76709 19.9648 5.25235C20.2328 4.73761 20.3709 4.16517 20.3671 3.58487C20.3613 3.43476 20.3463 3.28514 20.3221 3.13687C19.7121 2.6755 18.9563 2.44935 18.1931 2.49987H16.7541C16.5196 2.51024 16.2956 2.60033 16.1192 2.75525C15.9429 2.91017 15.8246 3.12064 15.7841 3.35187L15.2841 5.60187C15.2379 5.80138 15.2431 6.00937 15.2992 6.20632C15.3553 6.40328 15.4606 6.58274 15.6051 6.72787C15.5821 6.79987 15.5501 6.86187 15.5231 6.92987Z" fill="#685C4F"/>
<path d="M11.1929 12.5C11.1914 13.386 10.853 14.2382 10.2463 14.8839C9.63961 15.5296 8.81005 15.9204 7.92587 15.977L7.69287 19.5H8.41287C8.6358 19.5 8.85234 19.5745 9.02808 19.7117C9.20383 19.8488 9.3287 20.0407 9.38287 20.257L9.69287 21.5H5.19287L4.28387 13.267L4.19287 12.5C4.19287 11.5717 4.56162 10.6815 5.218 10.0251C5.87438 9.36878 6.76462 9.00003 7.69287 9.00003H12.6929C13.3562 8.9782 13.9956 8.74648 14.5189 8.3382C15.0421 7.92993 15.4224 7.36615 15.6049 6.72803" stroke="#191919" stroke-linecap="round" stroke-linejoin="round"/>
<path d="M4.53088 11C3.55779 11.0098 2.61788 10.6466 1.90414 9.98516C1.19039 9.32367 0.756973 8.41403 0.692879 7.443C0.69183 6.94568 0.796475 6.45382 0.999878 6" stroke="#191919" stroke-linecap="round" stroke-linejoin="round"/>
<path d="M18.4492 4.63999L18.6632 5.60199C18.7082 5.75866 18.7178 5.92336 18.6913 6.08419C18.6648 6.24502 18.6029 6.39795 18.5101 6.53193C18.4172 6.66591 18.2958 6.77758 18.1545 6.85887C18.0132 6.94017 17.8557 6.98905 17.6932 7.00199H16.2542C16.0917 6.98905 15.9341 6.94017 15.7929 6.85887C15.6516 6.77758 15.5302 6.66591 15.4373 6.53193C15.3445 6.39795 15.2826 6.24502 15.2561 6.08419C15.2296 5.92336 15.2392 5.75866 15.2842 5.60199L15.7842 3.35199C15.8247 3.12076 15.943 2.91029 16.1193 2.75537C16.2957 2.60045 16.5197 2.51036 16.7542 2.49999H18.1932C18.8502 2.417 19.515 2.5735 20.066 2.94081C20.6169 3.30812 21.0171 3.86165 21.1932 4.49999H22.3062C22.4646 4.49995 22.6208 4.53757 22.7619 4.60974C22.903 4.68191 23.0249 4.78656 23.1175 4.91509C23.2102 5.04361 23.271 5.19231 23.295 5.34894C23.3189 5.50558 23.3053 5.66566 23.2552 5.81599L22.8672 6.97899C22.814 7.13858 22.7214 7.28219 22.598 7.3965C22.4746 7.51082 22.3244 7.59216 22.1612 7.63299L19.6932 8.24999C19.7411 12.0529 19.2358 15.8425 18.1932 19.5H18.9132C19.1361 19.5 19.3527 19.5745 19.5284 19.7116C19.7041 19.8488 19.829 20.0407 19.8832 20.257L20.1932 21.5H16.1932L14.6932 15.5H12.2842" stroke="#191919" stroke-linecap="round" stroke-linejoin="round"/>
</svg>
