<svg width="24" height="24" viewBox="0 0 24 24" fill="none" xmlns="http://www.w3.org/2000/svg">
<g clip-path="url(#clip0_128_128)">
<path d="M12.354 5.24797C12.3076 5.20141 12.2524 5.16446 12.1916 5.13926C12.1309 5.11405 12.0658 5.10107 12 5.10107C11.9342 5.10107 11.8691 5.11405 11.8084 5.13926C11.7476 5.16446 11.6924 5.20141 11.646 5.24797L3.5 13.4V22.3C3.5 22.4326 3.55268 22.5598 3.64645 22.6536C3.74021 22.7473 3.86739 22.8 4 22.8H7C7.13261 22.8 7.25979 22.7473 7.35355 22.6536C7.44732 22.5598 7.5 22.4326 7.5 22.3V17.4C7.5 16.2065 7.97411 15.0619 8.81802 14.218C9.66193 13.3741 10.8065 12.9 12 12.9C13.1935 12.9 14.3381 13.3741 15.182 14.218C16.0259 15.0619 16.5 16.2065 16.5 17.4V22.3C16.5 22.4326 16.5527 22.5598 16.6464 22.6536C16.7402 22.7473 16.8674 22.8 17 22.8H20C20.1326 22.8 20.2598 22.7473 20.3536 22.6536C20.4473 22.5598 20.5 22.4326 20.5 22.3V13.4L12.354 5.24797Z" fill="white"/>
<path d="M12.354 5.24797C12.3076 5.20141 12.2524 5.16446 12.1916 5.13926C12.1309 5.11405 12.0658 5.10107 12 5.10107C11.9342 5.10107 11.8691 5.11405 11.8084 5.13926C11.7476 5.16446 11.6924 5.20141 11.646 5.24797L3.5 13.4V16.441L11.646 8.29397C11.6924 8.2474 11.7476 8.21046 11.8084 8.18526C11.8691 8.16005 11.9342 8.14707 12 8.14707C12.0658 8.14707 12.1309 8.16005 12.1916 8.18526C12.2524 8.21046 12.3076 8.2474 12.354 8.29397L20.5 16.436V13.4L12.354 5.24797Z" fill="#E3E3E3"/>
<path d="M3.5 15.8919V22.2919C3.5 22.4245 3.55268 22.5517 3.64645 22.6454C3.74021 22.7392 3.86739 22.7919 4 22.7919H7C7.13261 22.7919 7.25979 22.7392 7.35355 22.6454C7.44732 22.5517 7.5 22.4245 7.5 22.2919V17.3999C7.5 16.2064 7.97411 15.0618 8.81802 14.2179C9.66193 13.374 10.8065 12.8999 12 12.8999C13.1935 12.8999 14.3381 13.374 15.182 14.2179C16.0259 15.0618 16.5 16.2064 16.5 17.3999V22.2999C16.5 22.4325 16.5527 22.5597 16.6464 22.6534C16.7402 22.7472 16.8674 22.7999 17 22.7999H20C20.1326 22.7999 20.2598 22.7472 20.3536 22.6534C20.4473 22.5597 20.5 22.4325 20.5 22.2999V15.8999" stroke="#191919" stroke-linecap="round" stroke-linejoin="round"/>
<path d="M0.5 15.9001C0.5 16.1751 0.659 16.2411 0.854 16.0461L11.646 5.24807C11.6924 5.20151 11.7476 5.16456 11.8084 5.13936C11.8691 5.11415 11.9342 5.10118 12 5.10118C12.0658 5.10118 12.1309 5.11415 12.1916 5.13936C12.2524 5.16456 12.3076 5.20151 12.354 5.24807L23.146 16.0411C23.346 16.2411 23.5 16.1701 23.5 15.8951V12.7951C23.483 12.4787 23.358 12.1776 23.146 11.9421L12.707 1.50007C12.5195 1.3126 12.2652 1.20728 12 1.20728C11.7348 1.20728 11.4805 1.3126 11.293 1.50007L0.854 11.9391C0.641954 12.1746 0.517014 12.4757 0.5 12.7921V15.9001Z" fill="#8992C3" fill-opacity="0.6" stroke="#191919" stroke-linecap="round" stroke-linejoin="round"/>
</g>
<defs>
<clipPath id="clip0_128_128">
<rect width="24" height="24" fill="white"/>
</clipPath>
</defs>
</svg>
