<svg width="25" height="24" viewBox="0 0 25 24" fill="none" xmlns="http://www.w3.org/2000/svg">
<g clip-path="url(#clip0_89_1883)">
<path d="M12.4998 23.5C9.93896 23.5 7.45141 22.6452 5.43144 21.0711C3.41148 19.4971 1.97467 17.2939 1.34878 14.8107C0.722887 12.3276 0.943718 9.70654 1.97627 7.36311C3.00882 5.01967 4.79401 3.08792 7.04887 1.87406C9.30372 0.660193 11.8992 0.23367 14.424 0.662098C16.9487 1.09053 19.2582 2.34939 20.9864 4.23915C22.7146 6.1289 23.7626 8.54143 23.9643 11.0943C24.166 13.6472 23.5098 16.1943 22.0998 18.332L23.7808 22.386L19.7448 20.929C17.698 22.595 15.1388 23.5032 12.4998 23.5Z" fill="#EFEAE5"/>
<path d="M23.9999 12C23.9984 10.3022 23.6189 8.62593 22.8889 7.09302C22.8959 7.25302 22.9129 7.41002 22.9129 7.57102C22.9145 10.1835 22.0259 12.7185 20.3938 14.7583C18.7616 16.7981 16.4832 18.221 13.934 18.7924C11.3848 19.3639 8.71702 19.0499 6.37025 17.902C4.02348 16.7542 2.13778 14.8411 1.02393 12.478C1.11033 14.6079 1.78765 16.6718 2.98012 18.4388C4.17259 20.2057 5.83317 21.606 7.77608 22.483C9.71899 23.3601 11.8676 23.6792 13.9815 23.4048C16.0955 23.1303 18.0914 22.2731 19.7459 20.929L23.7819 22.386L22.0999 18.332C23.3423 16.4542 24.0032 14.2516 23.9999 12Z" fill="#D4C5B4"/>
<path d="M12.4998 23.5C9.93896 23.5 7.45141 22.6452 5.43144 21.0711C3.41148 19.4971 1.97467 17.2939 1.34878 14.8107C0.722887 12.3276 0.943718 9.70654 1.97627 7.36311C3.00882 5.01967 4.79401 3.08792 7.04887 1.87406C9.30372 0.660193 11.8992 0.23367 14.424 0.662098C16.9487 1.09053 19.2582 2.34939 20.9864 4.23915C22.7146 6.1289 23.7626 8.54143 23.9643 11.0943C24.166 13.6472 23.5098 16.1943 22.0998 18.332L23.7808 22.386L19.7448 20.929C17.698 22.595 15.1388 23.5032 12.4998 23.5Z" stroke="#00303E" stroke-linecap="round" stroke-linejoin="round"/>
<path d="M19.8416 14.797L18.2806 8.12903C18.2315 7.84568 18.072 7.59337 17.8371 7.42746C17.6022 7.26155 17.3111 7.19559 17.0276 7.24403L14.7066 7.79003C14.2318 7.44148 13.687 7.20001 13.1099 7.08225C12.5328 6.9645 11.9369 6.97327 11.3635 7.10795C10.7901 7.24264 10.2527 7.50004 9.7883 7.86241C9.32393 8.22479 8.94364 8.68353 8.67363 9.20703L6.27363 9.76903C5.99841 9.8521 5.76726 10.0407 5.63066 10.2937C5.49407 10.5466 5.46314 10.8433 5.54463 11.119L7.11163 17.788C7.16172 18.0706 7.32134 18.322 7.55579 18.4876C7.79024 18.6531 8.08056 18.7194 8.36363 18.672L19.1136 16.146C19.3886 16.063 19.6195 15.8745 19.7559 15.6217C19.8923 15.3689 19.9231 15.0725 19.8416 14.797ZM12.8696 15.744C12.2961 15.744 11.7354 15.574 11.2585 15.2553C10.7816 14.9366 10.4099 14.4837 10.1904 13.9538C9.97088 13.4239 9.91345 12.8408 10.0254 12.2783C10.1372 11.7157 10.4134 11.199 10.819 10.7934C11.2246 10.3879 11.7413 10.1117 12.3039 9.99976C12.8664 9.88786 13.4495 9.94529 13.9794 10.1648C14.5093 10.3843 14.9622 10.756 15.2809 11.2329C15.5995 11.7098 15.7696 12.2705 15.7696 12.844C15.7696 13.6123 15.4648 14.3492 14.922 14.8929C14.3792 15.4366 13.6429 15.7427 12.8746 15.744H12.8696Z" fill="#DDE5F4" stroke="#00303E" stroke-linecap="round" stroke-linejoin="round"/>
</g>
<defs>
<clipPath id="clip0_89_1883">
<rect width="24" height="24" fill="white" transform="translate(0.5)"/>
</clipPath>
</defs>
</svg>
