<svg width="25" height="24" viewBox="0 0 25 24" fill="none" xmlns="http://www.w3.org/2000/svg">
<g clip-path="url(#clip0_128_135)">
<path d="M3.811 16.743C3.86517 16.9592 3.99005 17.1512 4.16579 17.2883C4.34154 17.4255 4.55807 17.5 4.781 17.5H15.719C15.9421 17.5002 16.1589 17.4258 16.3348 17.2887C16.5108 17.1515 16.6358 16.9594 16.69 16.743L18.5 11.5H2L3.811 16.743Z" fill="#DDE5F4"/>
<path d="M17.797 13.536L18.5 11.5H2L2.703 13.536H17.797Z" fill="#616CAC"/>
<path d="M13 17.5H4.781C4.55794 17.4999 4.3413 17.4253 4.16554 17.288C3.98978 17.1506 3.86498 16.9584 3.811 16.742L2 11.5H15.5" stroke="#191919" stroke-linecap="round" stroke-linejoin="round"/>
<path d="M19.52 10.5C19.52 10.7652 19.4146 11.0196 19.2271 11.2071C19.0396 11.3946 18.7852 11.5 18.52 11.5H2C1.73478 11.5 1.48043 11.3946 1.29289 11.2071C1.10536 11.0196 1 10.7652 1 10.5C1 10.2348 1.10536 9.98043 1.29289 9.79289C1.48043 9.60536 1.73478 9.5 2 9.5H18.52C18.7852 9.5 19.0396 9.60536 19.2271 9.79289C19.4146 9.98043 19.52 10.2348 19.52 10.5Z" fill="#616CAC"/>
<path d="M16 11.5H2C1.73478 11.5 1.48043 11.3946 1.29289 11.2071C1.10536 11.0196 1 10.7652 1 10.5C1 10.2348 1.10536 9.98043 1.29289 9.79289C1.48043 9.60536 1.73478 9.5 2 9.5H18.5" stroke="#191919" stroke-linecap="round" stroke-linejoin="round"/>
<path d="M13.5 13.5V15.5" stroke="#191919" stroke-linecap="round" stroke-linejoin="round"/>
<path d="M10.5 13.5V15.5" stroke="#191919" stroke-linecap="round" stroke-linejoin="round"/>
<path d="M3.811 4.257C3.86517 4.04075 3.99005 3.84881 4.16579 3.71166C4.34154 3.5745 4.55807 3.50001 4.781 3.5H15.719C15.9421 3.49978 16.1589 3.57418 16.3348 3.71135C16.5108 3.84852 16.6358 4.04059 16.69 4.257L18.5 9.5H2L3.811 4.257Z" fill="white" stroke="#191919" stroke-linecap="round" stroke-linejoin="round"/>
<path d="M13.5 7.5V5.5" stroke="#191919" stroke-linecap="round" stroke-linejoin="round"/>
<path d="M10.5 7.5V5.5" stroke="#191919" stroke-linecap="round" stroke-linejoin="round"/>
<path d="M7.5 13.5V15.5" stroke="#191919" stroke-linecap="round" stroke-linejoin="round"/>
<path d="M7.5 7.5V5.5" stroke="#191919" stroke-linecap="round" stroke-linejoin="round"/>
<path d="M13.0002 3.5V3.125C13.0166 2.44544 12.7624 1.78718 12.2936 1.29494C11.8248 0.802704 11.1798 0.51677 10.5002 0.5C9.82077 0.517033 9.17584 0.803048 8.7071 1.29523C8.23836 1.78741 7.98412 2.44551 8.00023 3.125V3.5" stroke="#191919" stroke-linecap="round" stroke-linejoin="round"/>
<path d="M14.96 23.4999C14.662 23.4997 14.368 23.4303 14.1015 23.297C13.8349 23.1637 13.6029 22.9702 13.424 22.7319C13.1622 22.3826 13.0273 21.9545 13.0415 21.5182C13.0557 21.0819 13.2181 20.6635 13.502 20.3319L15.323 18.2079C15.4402 18.0704 15.5378 17.9173 15.613 17.7529L18 12.4999C18.1648 11.9742 18.4986 11.5176 18.9496 11.2011C19.4006 10.8846 19.9435 10.726 20.494 10.7499C20.788 10.7516 21.0751 10.8385 21.3207 11C21.5664 11.1615 21.7599 11.3907 21.878 11.6599C21.9684 11.8436 22.1101 11.9971 22.286 12.1018C22.4619 12.2065 22.6644 12.258 22.869 12.2499C23.1726 12.2539 23.4622 12.3781 23.6743 12.5954C23.8863 12.8127 24.0035 13.1053 24 13.4089C24.0053 13.8917 23.8187 14.3569 23.4812 14.7021C23.1436 15.0473 22.6828 15.2444 22.2 15.2499C21.8791 15.2461 21.5618 15.3184 21.2741 15.4609C20.9865 15.6033 20.7367 15.8118 20.5451 16.0693C20.3535 16.3268 20.2256 16.626 20.1719 16.9425C20.1182 17.2589 20.1401 17.5836 20.236 17.8899L21.5 23.4999H14.96Z" fill="#EFEAE5"/>
<path d="M14.5 22.5669L16.321 20.4429C16.4385 20.3055 16.5361 20.1524 16.611 19.9879L19 14.7359C19.1648 14.2102 19.4986 13.7536 19.9496 13.4371C20.4006 13.1206 20.9435 12.962 21.494 12.9859C22.3142 12.98 23.1338 13.0308 23.947 13.1379C23.894 12.8899 23.7586 12.6672 23.5628 12.5059C23.3671 12.3447 23.1225 12.2545 22.869 12.2499C22.6643 12.2578 22.4618 12.2063 22.2857 12.1016C22.1097 11.9969 21.9678 11.8435 21.877 11.6599C21.7594 11.3906 21.5661 11.1612 21.3206 10.9996C21.0751 10.8381 20.7879 10.7513 20.494 10.7499C19.9435 10.726 19.4006 10.8846 18.9496 11.2011C18.4986 11.5176 18.1648 11.9742 18 12.4999L15.613 17.7519C15.5381 17.9164 15.4405 18.0695 15.323 18.2069L13.5 20.3309C13.3078 20.554 13.1697 20.8184 13.0964 21.1036C13.0231 21.3888 13.0166 21.687 13.0775 21.9751C13.1384 22.2632 13.2649 22.5334 13.4473 22.7645C13.6297 22.9957 13.863 23.1817 14.129 23.3079C14.1961 23.0364 14.3229 22.7833 14.5 22.5669Z" fill="#D4C5B4"/>
<path d="M14.96 23.4999C14.662 23.4997 14.368 23.4303 14.1015 23.297C13.8349 23.1637 13.6029 22.9702 13.424 22.7319C13.1622 22.3826 13.0273 21.9545 13.0415 21.5182C13.0557 21.0819 13.2181 20.6635 13.502 20.3319L15.323 18.2079C15.4402 18.0704 15.5378 17.9173 15.613 17.7529L18 12.4999C18.1648 11.9742 18.4986 11.5176 18.9496 11.2011C19.4006 10.8846 19.9435 10.726 20.494 10.7499C20.788 10.7516 21.0751 10.8385 21.3207 11C21.5664 11.1615 21.7599 11.3907 21.878 11.6599C21.9684 11.8436 22.1101 11.9971 22.286 12.1018C22.4619 12.2065 22.6644 12.258 22.869 12.2499C23.1726 12.2539 23.4622 12.3781 23.6743 12.5954C23.8863 12.8127 24.0035 13.1053 24 13.4089C24.0053 13.8917 23.8187 14.3569 23.4812 14.7021C23.1436 15.0473 22.6828 15.2444 22.2 15.2499C21.8791 15.2461 21.5618 15.3184 21.2741 15.4609C20.9865 15.6033 20.7367 15.8118 20.5451 16.0693C20.3535 16.3268 20.2256 16.626 20.1719 16.9425C20.1182 17.2589 20.1401 17.5836 20.236 17.8899L21.5 23.4999H22.5" stroke="#191919" stroke-linecap="round" stroke-linejoin="round"/>
<path d="M17.5288 13.5359L20.3578 16.4289" stroke="#191919" stroke-linecap="round" stroke-linejoin="round"/>
<path d="M17 19.5C17.3085 19.9625 17.4997 20.4932 17.5572 21.0462C17.6147 21.5992 17.5367 22.1579 17.33 22.674L17 23.5H18.5" stroke="#191919" stroke-linecap="round" stroke-linejoin="round"/>
<path d="M13.082 21.98L13 22C12.4459 22.1383 11.8605 22.0713 11.352 21.8114C10.8435 21.5514 10.4463 21.1161 10.234 20.586L10 20" stroke="#191919" stroke-linecap="round" stroke-linejoin="round"/>
</g>
<defs>
<clipPath id="clip0_128_135">
<rect width="24" height="24" fill="white" transform="translate(0.5)"/>
</clipPath>
</defs>
</svg>
